<svg width="50" height="95" viewBox="0 0 50 95" fill="none" xmlns="http://www.w3.org/2000/svg">
<path d="M33.3501 79.3436C34.7894 78.8364 36.151 78.6803 37.5125 78.7973C39.1075 78.9144 39.4187 79.4997 38.6018 80.9435C37.9405 82.1531 36.929 83.0896 35.8787 83.948C32.7665 86.4063 29.3432 88.1622 25.3363 88.3964C24.5583 88.4354 23.6246 88.5525 23.1967 87.7721C22.7688 86.9916 23.3912 86.2893 23.8191 85.6649C26.1921 82.4653 29.5377 80.6703 33.3501 79.3436Z" fill="white"/>
<path d="M35.2951 16.2865C35.3729 17.4571 35.6841 18.8229 34.7505 19.2911C33.7002 19.8374 32.6498 18.8229 31.9107 18.0815C28.4095 14.5696 26.3477 10.3554 26.0365 5.36079C25.9976 4.6194 25.842 3.68291 26.7367 3.29271C27.437 2.98054 28.0983 3.52683 28.6429 3.99508C32.4942 7.15574 34.5171 11.2919 35.2951 16.2865Z" fill="white"/>
<path d="M35.1006 60.1846C34.4393 58.0775 33.8558 55.9704 33.5446 53.7852C33.2334 51.6001 33.5057 49.4929 34.2448 47.4639C34.8672 45.747 35.7231 45.6299 36.8123 47.1127C38.6407 49.61 39.4965 52.5366 39.8856 55.5802C40.1968 58.0384 40.3135 60.4577 39.1853 62.7989C38.5629 64.1256 37.8627 64.0866 37.0457 63.1111C36.3844 62.2526 35.8398 61.2771 35.1395 60.2626C35.0617 60.1846 35.0617 60.1846 35.0617 60.1846H35.1006Z" fill="white"/>
<path d="M45.6041 60.5748C44.7483 61.7454 43.7757 62.6038 42.6476 63.3062C41.0137 64.3207 40.4691 64.0476 40.3913 62.1356C40.1968 58.1945 42.064 54.9949 44.048 51.8732C44.9428 50.5075 46.032 49.2978 47.4325 48.4004C47.9771 48.0492 48.5995 47.62 49.222 47.8931C49.9611 48.2443 50 49.0247 50 49.7661C49.9222 51.7952 49.3387 53.7462 48.5217 55.5802C47.7437 57.2971 46.849 58.9749 45.6041 60.5748Z" fill="white"/>
<path d="M42.6476 46.2152C41.5194 41.1036 42.3364 36.4211 44.9039 32.0508C45.2929 31.3874 45.7208 30.568 46.6545 30.7241C47.5103 30.8802 47.7826 31.7777 47.9382 32.519C49.0664 37.5137 48.5995 42.3132 45.9931 46.8005C45.5652 47.5029 45.0984 48.4394 44.2037 48.4004C43.1144 48.3223 42.9977 47.1908 42.6476 46.2152Z" fill="white"/>
<path d="M37.7849 37.2015C40.0023 39.9329 41.286 42.9375 42.0641 46.2152C42.2197 46.8786 42.2197 47.62 42.1808 48.3223C42.1419 49.532 41.5583 49.9612 40.3913 49.4149C39.3798 48.9467 38.4851 48.2833 37.746 47.4639C35.1395 44.5764 33.2723 41.2596 32.4164 37.4746C32.2608 36.7723 32.2608 36.0699 32.2997 35.3675C32.2997 33.8457 33.0778 33.6116 34.3226 34.236C35.6842 34.8993 36.6956 35.9919 37.7849 37.2405V37.2015Z" fill="white"/>
<path d="M28.0983 21.9445C24.0914 20.6958 20.2791 19.135 17.5559 15.7012C17.128 15.1549 16.5056 14.5696 16.8168 13.7892C17.1669 12.9308 18.1395 12.9308 18.8397 12.9698C23.858 13.2039 28.0983 15.233 31.6773 18.6668C32.3775 19.3301 33.3501 20.3056 32.8443 21.3592C32.3775 22.3347 31.1326 21.9835 30.1601 22.0225C29.5766 22.0225 28.9931 21.9835 28.2539 21.9445C28.0983 21.9445 28.0983 21.9445 28.0983 21.9445Z" fill="white"/>
<path d="M20.2013 83.5969C20.2013 78.8754 24.7917 70.0177 28.3317 70.0567C29.2654 71.3444 29.1487 72.8662 28.9152 74.31C28.1761 78.4071 26.5811 82.1141 23.5468 85.0796C22.8077 85.821 22.0685 86.8356 20.9793 86.4063C19.9289 85.9771 20.2791 84.7285 20.2013 83.5969Z" fill="white"/>
<path d="M28.0983 21.9445C32.9999 23.7394 36.5789 27.0562 38.8352 31.7386C39.3409 32.7532 40.119 34.0408 39.1075 34.9773C38.2128 35.7968 36.929 35.0164 36.0343 34.5481C31.6384 32.1679 28.2928 28.7731 26.659 23.8955C26.231 22.6469 26.5034 22.0225 27.9816 21.9835C28.0983 21.9835 28.0983 21.9835 28.0983 21.9835L28.0983 21.9445Z" fill="white"/>
<path d="M40.0412 32.8702C37.2013 27.9927 36.3844 22.9981 37.9794 17.6522C38.2128 16.9109 38.3684 15.9744 39.2631 15.8573C40.1579 15.7012 40.5858 16.5987 40.9748 17.223C43.5423 21.9055 44.2815 26.8611 42.6476 32.0118C42.2975 33.1434 41.7528 34.6652 40.0801 32.8312L40.0412 32.8702Z" fill="white"/>
<path d="M35.1006 60.1846C36.151 64.9451 35.8009 69.5885 33.5835 73.9978C33.0388 75.0904 32.3775 76.1439 31.0938 76.7292C29.8878 75.9488 29.6544 74.6612 29.4988 73.3735C28.8764 68.4959 29.6544 63.9696 32.4942 59.8334C33.4279 58.4677 34.2448 58.4286 35.0618 60.1065C35.1396 60.1846 35.1395 60.1846 35.1395 60.1846L35.1006 60.1846Z" fill="white"/>
<path d="M39.691 75.3635C38.2128 76.339 36.8512 77.2365 35.2173 77.4706C33.7002 77.6657 33.1944 76.9634 33.5446 75.5196C33.8947 74.1539 34.556 72.9833 35.4508 71.9297C37.9794 68.8471 40.6636 65.9596 44.7483 65.0231C45.3707 64.867 46.0709 64.5939 46.5767 65.1792C47.1602 65.8035 46.8101 66.5449 46.5767 67.2083C45.2151 70.6421 42.7254 73.1394 39.7299 75.4025L39.691 75.3635Z" fill="white"/>
<path d="M16.2333 8.48243C14.1715 6.5314 12.4209 4.58038 11.5651 1.96601C11.0204 0.327149 11.4873 -0.18012 13.1989 0.0540024C17.4003 0.63931 23.7024 6.41435 24.8695 10.6676C25.2196 11.8772 24.8695 12.3455 23.6246 12.3845C22.263 12.3845 21.1349 11.7992 19.9678 11.1748C18.6452 10.4725 17.4392 9.61403 16.2333 8.52145V8.48243Z" fill="white"/>
<path d="M6.89684 93.2349C5.02956 93.5861 3.31789 93.8983 1.60621 94.1324C0.983781 94.2104 0.127928 94.3275 0.0112228 93.469C-0.105483 92.5716 0.711455 92.5325 1.37278 92.4935C7.20805 92.0253 12.6154 90.3084 17.7115 87.4989C18.2951 87.1477 18.9564 86.6795 20.0456 87.5379C16.1555 90.7376 11.6429 92.0643 6.85795 93.2349H6.89684Z" fill="white"/>
</svg>
